<svg width="70" height="70" viewBox="0 0 70 70" fill="none" xmlns="http://www.w3.org/2000/svg">
<circle cx="35" cy="35" r="35" fill="white"/>
<g clip-path="url(#clip0_0_1)">
<path d="M47.3885 37.0521L56.5471 27.8931C60.2953 24.1452 60.2953 18.0472 56.5467 14.2993L55.0589 12.8116C51.3109 9.06322 45.2132 9.06322 41.4651 12.8111L32.3061 21.9697C30.2392 24.0366 29.3144 26.819 29.5272 29.5274C26.819 29.3144 24.0366 30.2391 21.9699 32.3064L12.8111 41.4653C9.06297 45.2128 9.06297 51.3108 12.8111 55.059L14.2993 56.547C18.0474 60.295 24.1454 60.295 27.8931 56.547L37.0519 47.3882C39.1193 45.321 40.0438 42.5387 39.8309 39.8307C42.539 40.044 45.3213 39.119 47.3885 37.0521ZM33.8155 44.1514L24.6566 53.3105C22.6934 55.2734 19.4988 55.2734 17.5361 53.3105L16.0477 51.822C14.0845 49.8593 14.0848 46.6647 16.0477 44.7011L25.2066 35.5427C26.8683 33.8809 29.4112 33.6265 31.3441 34.777L27.548 38.5736C26.6542 39.4672 26.6542 40.9167 27.548 41.8102C28.4417 42.7041 29.891 42.7041 30.7846 41.8102L34.5811 38.014C35.7317 39.9469 35.4774 42.4901 33.8155 44.1514ZM38.0143 34.5812L41.81 30.7846C42.7041 29.8913 42.7041 28.4419 41.81 27.5484C40.9164 26.6541 39.4672 26.6541 38.5734 27.548L34.7772 31.3441C33.6266 29.4114 33.8809 26.8682 35.5428 25.2067L44.7015 16.0479C46.6649 14.0845 49.8594 14.0845 51.8224 16.0479L53.3107 17.5361C55.2738 19.4993 55.2738 22.6935 53.3107 24.6567L44.1518 33.8157C42.4901 35.4776 39.947 35.7317 38.0143 34.5812Z" fill="black"/>
</g>
<defs>
<clipPath id="clip0_0_1">
<rect width="50" height="50" fill="white" transform="translate(10 10)"/>
</clipPath>
</defs>
</svg>
